<?xml version="1.0" encoding="UTF-8" standalone="no"?>
<!DOCTYPE svg PUBLIC "-//W3C//DTD SVG 1.1//EN"
 "http://www.w3.org/Graphics/SVG/1.1/DTD/svg11.dtd">
<!-- Generated by graphviz version 2.40.1 (20161225.0304)
 -->
<!-- Title: dependencies Pages: 1 -->
<svg width="504pt" height="284pt"
 viewBox="0.00 0.00 504.00 284.00" xmlns="http://www.w3.org/2000/svg" xmlns:xlink="http://www.w3.org/1999/xlink">
<g id="graph0" class="graph" transform="scale(1 1) rotate(0) translate(4 280)">
<title>dependencies</title>
<polygon fill="#ffffff" stroke="transparent" points="-4,4 -4,-280 500,-280 500,4 -4,4"/>
<text text-anchor="start" x="227.0091" y="-42.4" font-family="sans-serif" font-weight="bold" font-size="14.00" fill="#000000">Legend</text>
<polygon fill="#ffffb3" stroke="transparent" points="14,-10 14,-30 34,-30 34,-10 14,-10"/>
<text text-anchor="start" x="37.629" y="-15.4" font-family="sans-serif" font-size="14.00" fill="#000000"> &#160;Declarations</text>
<polygon fill="#8dd3c7" stroke="transparent" points="127,-10 127,-30 147,-30 147,-10 127,-10"/>
<text text-anchor="start" x="150.7251" y="-15.4" font-family="sans-serif" font-size="14.00" fill="#000000"> &#160;Module</text>
<polygon fill="#80b1d3" stroke="transparent" points="213,-10 213,-30 233,-30 233,-10 213,-10"/>
<text text-anchor="start" x="236.7812" y="-15.4" font-family="sans-serif" font-size="14.00" fill="#000000"> &#160;Bootstrap</text>
<polygon fill="#fdb462" stroke="transparent" points="310,-10 310,-30 330,-30 330,-10 310,-10"/>
<text text-anchor="start" x="333.6732" y="-15.4" font-family="sans-serif" font-size="14.00" fill="#000000"> &#160;Providers</text>
<polygon fill="#fb8072" stroke="transparent" points="406,-10 406,-30 426,-30 426,-10 406,-10"/>
<text text-anchor="start" x="429.7258" y="-15.4" font-family="sans-serif" font-size="14.00" fill="#000000"> &#160;Exports</text>
<g id="clust1" class="cluster">
<title>cluster_AuthModule</title>
<polygon fill="none" stroke="#000000" stroke-dasharray="1,5" points="98,-70 98,-268 268,-268 268,-70 98,-70"/>
</g>
<g id="clust2" class="cluster">
<title>cluster_AuthModule_declarations</title>
<polygon fill="none" stroke="#000000" points="109,-78 109,-130 259,-130 259,-78 109,-78"/>
</g>
<g id="clust5" class="cluster">
<title>cluster_AuthModule_exports</title>
<polygon fill="none" stroke="#000000" points="106,-208 106,-260 260,-260 260,-208 106,-208"/>
</g>
<g id="clust8" class="cluster">
<title>cluster_FireuserModule</title>
<polygon fill="none" stroke="#000000" stroke-dasharray="1,5" points="276,-208 276,-260 398,-260 398,-208 276,-208"/>
</g>
<!-- AuthTextComponent -->
<g id="node1" class="node">
<title>AuthTextComponent</title>
<polygon fill="#ffffb3" stroke="#000000" points="251.4874,-122 116.5126,-122 116.5126,-86 251.4874,-86 251.4874,-122"/>
<text text-anchor="middle" x="184" y="-99.8" font-family="Times,serif" font-size="14.00" fill="#000000">AuthTextComponent</text>
</g>
<!-- AuthModule -->
<g id="node2" class="node">
<title>AuthModule</title>
<polygon fill="#8dd3c7" stroke="#000000" points="227.5482,-187 224.5482,-191 203.5482,-191 200.5482,-187 140.4518,-187 140.4518,-151 227.5482,-151 227.5482,-187"/>
<text text-anchor="middle" x="184" y="-164.8" font-family="Times,serif" font-size="14.00" fill="#000000">AuthModule</text>
</g>
<!-- AuthTextComponent&#45;&gt;AuthModule -->
<g id="edge1" class="edge">
<title>AuthTextComponent&#45;&gt;AuthModule</title>
<path fill="none" stroke="#000000" d="M184,-122.1061C184,-122.1061 184,-140.991 184,-140.991"/>
<polygon fill="#000000" stroke="#000000" points="180.5001,-140.9909 184,-150.991 187.5001,-140.991 180.5001,-140.9909"/>
</g>
<!-- AuthTextComponent  -->
<g id="node3" class="node">
<title>AuthTextComponent </title>
<polygon fill="#fb8072" stroke="#000000" points="252.4883,-252 113.5117,-252 113.5117,-216 252.4883,-216 252.4883,-252"/>
<text text-anchor="middle" x="183" y="-229.8" font-family="Times,serif" font-size="14.00" fill="#000000">AuthTextComponent </text>
</g>
<!-- AuthModule&#45;&gt;AuthTextComponent  -->
<g id="edge2" class="edge">
<title>AuthModule&#45;&gt;AuthTextComponent </title>
<path fill="none" stroke="#000000" stroke-dasharray="5,2" d="M184,-187.1061C184,-187.1061 184,-205.991 184,-205.991"/>
<polygon fill="#000000" stroke="#000000" points="180.5001,-205.9909 184,-215.991 187.5001,-205.991 180.5001,-205.9909"/>
</g>
<!-- FireuserModule -->
<g id="node4" class="node">
<title>FireuserModule</title>
<polygon fill="#8dd3c7" stroke="#000000" points="389.9188,-252 386.9188,-256 365.9188,-256 362.9188,-252 284.0812,-252 284.0812,-216 389.9188,-216 389.9188,-252"/>
<text text-anchor="middle" x="337" y="-229.8" font-family="Times,serif" font-size="14.00" fill="#000000">FireuserModule</text>
</g>
<!-- AuthModule&#45;&gt;FireuserModule -->
<g id="edge3" class="edge">
<title>AuthModule&#45;&gt;FireuserModule</title>
<path fill="none" stroke="#000000" d="M227.8437,-169C273.0549,-169 337,-169 337,-169 337,-169 337,-205.8939 337,-205.8939"/>
<polygon fill="#000000" stroke="#000000" points="333.5001,-205.8938 337,-215.8939 340.5001,-205.8939 333.5001,-205.8938"/>
</g>
</g>
</svg>
